<?xml version="1.0" encoding="UTF-8" standalone="no"?>
<!-- Created with Inkscape (http://www.inkscape.org/) -->

<svg
   xmlns:dc="http://purl.org/dc/elements/1.1/"
   xmlns:cc="http://creativecommons.org/ns#"
   xmlns:rdf="http://www.w3.org/1999/02/22-rdf-syntax-ns#"
   xmlns:svg="http://www.w3.org/2000/svg"
   xmlns="http://www.w3.org/2000/svg"
   xmlns:sodipodi="http://sodipodi.sourceforge.net/DTD/sodipodi-0.dtd"
   xmlns:inkscape="http://www.inkscape.org/namespaces/inkscape"
   id="svg3065"
   version="1.1"
   inkscape:version="0.48.4 r9939"
   width="256"
   height="256"
   sodipodi:docname="linguist-unknown.png">
  <metadata
     id="metadata3071">
    <rdf:RDF>
      <cc:Work
         rdf:about="">
        <dc:format>image/svg+xml</dc:format>
        <dc:type
           rdf:resource="http://purl.org/dc/dcmitype/StillImage" />
        <dc:title></dc:title>
      </cc:Work>
    </rdf:RDF>
  </metadata>
  <defs
     id="defs3069" />
  <sodipodi:namedview
     pagecolor="#ffffff"
     bordercolor="#666666"
     borderopacity="1"
     objecttolerance="10"
     gridtolerance="10"
     guidetolerance="10"
     inkscape:pageopacity="0"
     inkscape:pageshadow="2"
     inkscape:window-width="1366"
     inkscape:window-height="713"
     id="namedview3067"
     showgrid="false"
     inkscape:snap-center="true"
     inkscape:zoom="0.65186406"
     inkscape:cx="111.06843"
     inkscape:cy="125.2632"
     inkscape:window-x="0"
     inkscape:window-y="30"
     inkscape:window-maximized="1"
     inkscape:current-layer="svg3065" />
  <path
     sodipodi:type="arc"
     style="fill:#e2e3db;fill-opacity:1;stroke:#000000;stroke-width:8;stroke-miterlimit:4;stroke-opacity:0;stroke-dasharray:none"
     id="path3917"
     sodipodi:cx="-42.18671"
     sodipodi:cy="57.338947"
     sodipodi:rx="112.75357"
     sodipodi:ry="112.75357"
     d="m 70.56686,57.338947 a 112.75357,112.75357 0 1 1 -225.50714,0 112.75357,112.75357 0 1 1 225.50714,0 z"
     transform="matrix(1.0591269,0,0,1.0591269,175.7251,70.098623)" />
  <path
     style="fill:#808080;fill-opacity:1;stroke:#000000;stroke-width:0.70084482px;stroke-linecap:butt;stroke-linejoin:miter;stroke-opacity:0"
     d="m 154.97535,163.47817 c 0,0 5.32167,6.0819 7.60239,15.20477 2.28071,9.12286 6.84214,30.40953 3.8012,38.01191 -3.04097,7.60239 4.56142,9.8831 4.56142,9.8831 0,0 -15.20477,0 -17.48548,-9.8831 -2.28072,-9.8831 -2.28072,-31.93001 -2.28072,-31.93001 l -2.28071,34.21073 c 0,0 3.04095,9.88309 6.0819,10.64334 3.04096,0.76023 -18.24572,-3.04096 -18.24572,-7.60239 0,-4.56142 -0.76024,-37.25168 -0.76024,-37.25168 l -0.73242,-2.25969 -1.34393,6.9884 0,35.21082 c 0,0 -15.32073,6.18205 -15.85831,3.76299 -0.53757,-2.41907 2.41906,-5.64448 2.41906,-5.64448 l -0.26878,-38.70503 c 0,0 -1.34392,-2.41906 -1.88149,0.53757 -0.53757,2.95664 -0.26879,19.6213 -0.26879,19.6213 l -0.80635,18.54616 c 0,0 -12.09532,7.52597 -15.05195,5.91327 -2.956643,-1.61271 2.41906,-4.30056 2.41906,-4.30056 l 0.53757,-28.4912 -23.653075,-2.15028 c 0,0 -16.664661,-18.27737 -18.546155,-23.65307 -1.881493,-5.3757 -9.138687,-8.60112 -9.138687,-8.60112 0,0 6.988405,-2.95663 12.364106,0 5.375701,2.95664 19.621291,15.85832 19.621291,15.85832 l 19.35252,0.26878 0,-4.30056 7.25719,-9.13869 c 0,0 -41.661657,-6.9884 -49.993988,-33.32931 -8.332331,-26.34092 3.762987,-48.112497 8.063542,-56.444828 4.300564,-8.33233 2.78992,-34.514201 2.78992,-34.514201 0,0 25.087868,9.502979 30.029416,12.163813 4.94155,2.660834 19.05348,-8.386381 43.00098,-3.064713 23.94752,5.321668 15.15726,4.20507 15.15726,4.20507 0,0 25.8481,-15.204766 31.16977,-9.502979 5.32167,5.701788 2.28072,26.98846 2.28072,26.98846 0,0 18.24572,22.046914 12.16382,47.134778 -6.08191,25.08787 -7.60239,24.70775 -7.60239,24.70775 0,0 -9.8831,17.48548 -44.47395,20.90656 z"
     id="path3913"
     inkscape:connector-curvature="0" />
  <g
     id="g3869"
     transform="matrix(0.25907157,0,0,0.25907157,217.96484,91.833687)"
     style="fill:#e2e3db">
    <rect
       y="7.5932202"
       x="-478.37289"
       height="104.13559"
       width="315.66101"
       id="rect3081"
       style="fill:#e2e3db;fill-opacity:1;stroke:none" />
    <rect
       transform="matrix(0,1,-1,0,0,0)"
       y="268.47461"
       x="-98.169487"
       height="104.13559"
       width="315.66101"
       id="rect3081-4"
       style="fill:#e2e3db;fill-opacity:1;stroke:none" />
  </g>
</svg>
